<?xml version="1.0" encoding="utf-8"?>
<!-- Generator: Adobe Illustrator 26.0.1, SVG Export Plug-In . SVG Version: 6.00 Build 0)  -->
<svg version="1.1" id="Calque_1" xmlns="http://www.w3.org/2000/svg" xmlns:xlink="http://www.w3.org/1999/xlink" x="0px" y="0px"
	 viewBox="0 0 1154.7 298.6" style="enable-background:new 0 0 1154.7 298.6;" xml:space="preserve">
<style type="text/css">
	.st0{fill:#D7CEC5;}
</style>
<g>
	<path class="st0" d="M391.9,201.7c-9.5,0-18.7-1.3-27.5-3.8s-15.8-5.9-21.2-9.9l9.4-20.7c5,3.6,11,6.6,18,8.9
		c7,2.3,14.1,3.5,21.2,3.5c5.4,0,9.8-0.6,13.2-1.7c3.3-1.1,5.8-2.6,7.4-4.5s2.4-4.1,2.4-6.5c0-3.2-1.2-5.7-3.7-7.6
		c-2.5-1.9-5.8-3.4-9.9-4.6c-4.1-1.2-8.6-2.3-13.5-3.4c-4.9-1.1-9.8-2.4-14.7-3.9c-4.9-1.5-9.5-3.6-13.6-6.1s-7.4-5.9-9.9-10
		c-2.4-4.1-3.7-9.3-3.7-15.6c0-6.8,1.8-13,5.4-18.6s9.2-10.1,16.6-13.4s16.7-5,28-5c7.5,0,14.9,0.9,22.2,2.7
		c7.3,1.8,13.7,4.4,19.1,7.8l-8.7,20.7c-5.3-3.1-10.8-5.4-16.5-6.9s-11.1-2.3-16.3-2.3c-5.4,0-9.8,0.6-13.1,1.8
		c-3.3,1.2-5.7,2.8-7.2,4.8s-2.3,4.3-2.3,6.8c0,3.2,1.2,5.7,3.7,7.6s5.8,3.4,9.9,4.5s8.6,2.2,13.6,3.2c5,1.1,9.9,2.4,14.8,4
		s9.4,3.6,13.4,6c4.1,2.4,7.4,5.7,9.9,9.9c2.5,4.1,3.8,9.3,3.8,15.4c0,6.7-1.8,12.8-5.5,18.4c-3.7,5.6-9.3,10-16.7,13.4
		S403.1,201.7,391.9,201.7z"/>
	<path class="st0" d="M548.5,129.1c-4-7-9.5-12.5-16.3-16.4c-6.9-3.9-14.6-5.9-23.4-5.9c-7.8,0-14.6,1.7-20.5,5.1
		c-3.1,1.8-5.8,4.1-8.1,6.9v-10.6h-25.3v124.4h26.5v-42.7c2.2,2.4,4.6,4.4,7.3,6c5.8,3.4,12.5,5.1,20.1,5.1c8.7,0,16.5-2,23.4-5.9
		s12.3-9.4,16.3-16.3c4-7,6-15.3,6-24.9C554.5,144.4,552.5,136.1,548.5,129.1z M524.5,167.4c-2.1,3.8-4.9,6.7-8.3,8.8
		c-3.5,2-7.4,3.1-11.8,3.1s-8.4-1-11.9-3.1c-3.5-2-6.3-5-8.4-8.8s-3.1-8.3-3.1-13.5c0-5.3,1-9.9,3.1-13.6c2.1-3.7,4.9-6.6,8.4-8.6
		s7.5-3,11.9-3s8.4,1,11.8,3c3.5,2,6.2,4.8,8.3,8.6c2.1,3.7,3.1,8.3,3.1,13.6C527.7,159.1,526.6,163.6,524.5,167.4z"/>
	<path class="st0" d="M611.3,201c-9.6,0-18.2-2-25.8-6.1c-7.5-4.1-13.5-9.7-17.8-16.7c-4.3-7.1-6.5-15.2-6.5-24.2
		c0-9.2,2.2-17.3,6.5-24.4c4.3-7.1,10.2-12.6,17.8-16.7c7.5-4,16.1-6,25.8-6s18.4,2,26,6s13.5,9.6,17.9,16.7
		c4.3,7.1,6.5,15.2,6.5,24.4s-2.2,17.3-6.5,24.3s-10.3,12.6-17.9,16.7C629.7,199,621.1,201,611.3,201z M611.3,179.2
		c4.5,0,8.5-1,12-3s6.2-4.9,8.3-8.8c2.1-3.9,3.1-8.4,3.1-13.6c0-5.3-1-9.9-3.1-13.6c-2.1-3.7-4.9-6.6-8.3-8.6c-3.5-2-7.4-3-11.8-3
		c-4.4,0-8.4,1-11.9,3s-6.3,4.8-8.4,8.6c-2.1,3.7-3.1,8.3-3.1,13.6c0,5.2,1,9.7,3.1,13.6c2.1,3.9,4.9,6.8,8.4,8.8
		S607,179.2,611.3,179.2z"/>
	<path class="st0" d="M726.9,176.5c-2.9,2.3-6.6,3.4-10.9,3.4c-3.4,0-6.1-1.1-8.1-3.2c-2-2.2-3-5.2-3-9v-37.1h22.6v-20.4h-22.6V87.9
		h-26.7v22.3h-14.1v20.4h14.1v37.6c0,10.9,3,19.1,9,24.6s14.4,8.2,25.2,8.2c4.1,0,8-0.5,11.8-1.4c3.8-1,7-2.4,9.6-4.3L726.9,176.5z"
		/>
	<path class="st0" d="M744.8,199.6V73.5h26.5v126.1H744.8z"/>
	<path class="st0" d="M805,95.4c-5,0-9-1.4-12.1-4.2c-3.1-2.8-4.6-6.3-4.6-10.5s1.5-7.7,4.6-10.5S800,66,805,66c4.9,0,8.9,1.3,12,4
		s4.7,6.1,4.7,10.3c0,4.4-1.5,8.1-4.6,11S809.9,95.4,805,95.4z M791.7,199.6v-91.5h26.5v91.5H791.7z"/>
	<g>
		<path class="st0" d="M870.8,96.3c2.1-2.2,5.1-3.2,8.9-3.2c2,0,4,0.3,5.8,0.8c1.8,0.6,3.5,1.4,4.9,2.4l7-19.4
			c-2.5-1.6-5.6-2.8-9.2-3.6c-3.6-0.8-7.3-1.2-11-1.2c-11.3,0-20.1,3.1-26.2,9.2c-6.1,6.1-9.2,14.4-9.2,24.8v4.1h-14.1v20.4h14.1v69
			h26.7v-69h22.6v-20.4h-23.4v-3.7C867.7,101.8,868.7,98.4,870.8,96.3z"/>
		<path class="st0" d="M919.4,95.4c5,0,9-1.4,12.1-4.3s4.6-6.5,4.6-11c0-4.2-1.6-7.6-4.7-10.3c-3.1-2.7-7.1-4-12-4
			c-5,0-9,1.4-12.1,4.2s-4.6,6.3-4.6,10.5s1.5,7.7,4.6,10.5C910.4,94,914.4,95.4,919.4,95.4z"/>
		<rect x="906.1" y="108.2" class="st0" width="26.5" height="91.5"/>
	</g>
	<path class="st0" d="M1036.1,128.9c-4.2-7-9.9-12.5-17.1-16.3c-7.2-3.9-15.3-5.8-24.2-5.8c-9.3,0-17.7,2-25.1,6
		c-7.4,4-13.2,9.6-17.3,16.7c-4.1,7.1-6.2,15.2-6.2,24.3s2.2,17.1,6.5,24.2c4.3,7.1,10.4,12.7,18.2,16.7c7.8,4.1,16.9,6.1,27.4,6.1
		c8.3,0,15.6-1.3,21.9-3.8c6.3-2.6,11.6-6.2,15.8-11l-14.1-15.3c-3.1,2.9-6.4,5.2-10.1,6.6c-3.7,1.5-7.9,2.2-12.7,2.2
		c-5.6,0-10.3-1-14.3-3s-7.1-4.8-9.4-8.6c-1.2-2.1-2.1-4.3-2.7-6.8h69.2c0.1-1.1,0.2-2.4,0.3-3.7c0.1-1.3,0.2-2.5,0.2-3.5
		C1042.4,144.4,1040.3,135.9,1036.1,128.9z M983,129.9c3.5-2,7.5-3,12-3s8.5,1,11.9,3s6.1,4.7,8,8.2c1.3,2.3,2.1,4.9,2.5,7.8h-44.9
		c0.4-2.8,1.3-5.4,2.5-7.7C976.9,134.6,979.6,131.8,983,129.9z"/>
	<path class="st0" d="M1122.5,73.5v44.3c-2.1-2.3-4.5-4.3-7.1-5.8c-5.8-3.4-12.5-5.1-20.2-5.1c-8.6,0-16.4,2-23.3,5.9
		s-12.4,9.4-16.3,16.4c-4,7-5.9,15.3-5.9,24.8s2,17.8,5.9,24.8c4,7,9.4,12.5,16.3,16.4s14.7,5.9,23.3,5.9c8,0,14.9-1.7,20.7-5
		c3-1.8,5.6-4,7.9-6.8v10.5h25.3V73.5H1122.5z M1119.9,167.5c-2.1,3.9-4.9,6.8-8.4,8.8s-7.5,3-11.9,3c-4.3,0-8.2-1-11.7-3
		s-6.3-4.9-8.4-8.8c-2.1-3.9-3.1-8.4-3.1-13.6c0-5.3,1-9.9,3.1-13.6c2.1-3.7,4.9-6.6,8.4-8.6s7.4-3,11.7-3c4.4,0,8.4,1,11.9,3
		s6.3,4.8,8.4,8.6c2.1,3.7,3.1,8.3,3.1,13.6C1123,159.1,1122,163.7,1119.9,167.5z"/>
</g>
<path class="st0" d="M161.2,8.2C83.3,0.6,14,57.6,6.4,135.5s49.4,147.2,127.3,154.8c77.9,7.6,147.2-49.4,154.8-127.3
	S239.1,15.7,161.2,8.2z M225.1,210.5c-0.5,5.2-4.9,9-9.9,9c-0.3,0-0.7,0-1,0L68.4,205.3c-5.5-0.5-9.5-5.4-9-10.9s5.4-9.5,10.9-9
	l145.8,14.2C221.6,200.1,225.6,205,225.1,210.5z M238.6,166.4c-0.5,5.2-4.9,9-9.9,9c-0.3,0-0.7,0-1,0l-164-16
	c-5.5-0.5-9.5-5.4-9-10.9s5.4-9.5,10.9-9l164,16C235.1,156,239.1,160.9,238.6,166.4z M252.1,122.3c-0.5,5.2-4.9,9-9.9,9
	c-0.3,0-0.7,0-1,0L58.9,113.5c-5.5-0.5-9.5-5.4-9-10.9s5.4-9.5,10.9-9L243,111.3C248.6,111.9,252.6,116.8,252.1,122.3z"/>
</svg>
